HIERARCHY
ROOT Hips
{
	OFFSET 0.00 0.00 0.00
	CHANNELS 6 Xposition Yposition Zposition Xrotation Yrotation Zrotation
	JOINT RightUpLeg
	{
		OFFSET -3.69398 0.00000 0.00000
		CHANNELS 3 Xrotation Yrotation Zrotation
		JOINT RightLeg
		{
			OFFSET 0.00000 -15.79567 0.00000
			CHANNELS 3 Xrotation Yrotation Zrotation
			JOINT RightFoot
			{
				OFFSET 0.00000 -14.76699 0.00000
				CHANNELS 3 Xrotation Yrotation Zrotation
				JOINT RightToeBase
				{
					OFFSET 0.00000 -1.28446 4.79369
					CHANNELS 3 Xrotation Yrotation Zrotation
					End Site
					{
						OFFSET 0.00000 0.00000 2.95275
					}
				}
			}
		}
	}
	JOINT LeftUpLeg
	{
		OFFSET 3.69398 0.00000 0.00000
		CHANNELS 3 Xrotation Yrotation Zrotation
		JOINT LeftLeg
		{
			OFFSET 0.00000 -15.79567 0.00000
			CHANNELS 3 Xrotation Yrotation Zrotation
			JOINT LeftFoot
			{
				OFFSET 0.00000 -14.76699 0.00000
				CHANNELS 3 Xrotation Yrotation Zrotation
				JOINT LeftToeBase
				{
					OFFSET 0.00000 -1.28446 4.79369
					CHANNELS 3 Xrotation Yrotation Zrotation
					End Site
					{
						OFFSET 0.00000 0.00000 2.95275
					}
				}
			}
		}
	}
	JOINT Spine
	{
		OFFSET 0.00000 2.39296 0.00000
		CHANNELS 3 Xrotation Yrotation Zrotation
		JOINT RightShoulder
		{
			OFFSET 0.00000 13.20741 0.00000
			CHANNELS 3 Xrotation Yrotation Zrotation
			JOINT RightArm
			{
				OFFSET -8.14047 0.00000 0.00000
				CHANNELS 3 Xrotation Yrotation Zrotation
				JOINT RightForeArm
				{
					OFFSET -10.64984 0.00000 0.00000
					CHANNELS 3 Yrotation Zrotation Xrotation
					JOINT RightHand
					{
						OFFSET -8.30462 0.00000 0.00000
						CHANNELS 3 Xrotation Yrotation Zrotation
						End Site
						{
							OFFSET -3.93700 0.00000 0.00000
						}
						JOINT RightHandThumb1
						{
							OFFSET 0.00000 0.00000 0.00000
							CHANNELS 3 Xrotation Zrotation Yrotation
							End Site
							{
								OFFSET 0.00000 0.00000 3.93700
							}
						}
					}
				}
			}
		}
		JOINT LeftShoulder
		{
			OFFSET 0.00000 13.20741 0.00000
			CHANNELS 3 Xrotation Yrotation Zrotation
			JOINT LeftArm
			{
				OFFSET 8.14047 0.00000 0.00000
				CHANNELS 3 Xrotation Yrotation Zrotation
				JOINT LeftForeArm
				{
					OFFSET 10.64984 0.00000 0.00000
					CHANNELS 3 Yrotation Zrotation Xrotation
					JOINT LeftHand
					{
						OFFSET 8.30462 0.00000 0.00000
						CHANNELS 3 Xrotation Yrotation Zrotation
						End Site
						{
							OFFSET 3.93700 0.00000 0.00000
						}
						JOINT LeftHandThumb1
						{
							OFFSET 0.00000 0.00000 0.00000
							CHANNELS 3 Xrotation Zrotation Yrotation
							End Site
							{
								OFFSET 0.00000 0.00000 3.93700
							}
						}
					}
				}
			}
		}
		JOINT Head
		{
			OFFSET 0.00000 19.25010 0.00000
			CHANNELS 3 Xrotation Yrotation Zrotation
			End Site
			{
				OFFSET 0.00000 4.52755 0.00000
			}
		}
	}
}
MOTION
Frames: 11
Frame Time: 0.008333
 -0.9184 31.7670 -10.5301 61.0187 -8.1050 22.6184 -54.4750 2.4439 10.6731 -5.5711 0.0000 -0.0000 -5.1200 2.8079 5.6834 17.7094 0.0000 -0.0000 -67.3538 3.3042 -11.0484 2.7455 -0.0000 -0.0000 -4.8961 8.9111 -0.7845 8.1403 -0.0000 0.0000 -42.3446 -8.3967 -38.4680 -33.9005 12.6672 -71.4857 18.1050 -2.8867 4.6527 -6.5072 -0.0000 -27.8379 -0.3717 14.5559 1.4788 32.8623 0.0000 -24.3270 4.2117 6.0484 1.3532 -11.8111 -26.1958 -73.5845 5.0643 0.0000 7.1244 -0.1143 12.5807 0.5249 33.1476 -0.0000 26.2537 -7.5188 28.7173 -43.4868
 -0.9230 31.7666 -10.5188 60.9707 -8.0261 22.5001 -54.4505 2.4771 10.6569 -5.5772 0.0000 -0.0000 -5.1680 2.6949 5.5301 17.6826 -0.0000 -0.0000 -67.3418 3.2732 -11.0815 2.8078 0.0000 0.0000 -4.9073 8.8158 -0.8363 8.0577 -0.0000 0.0000 -42.3678 -8.4292 -38.4422 -33.9763 12.7320 -71.4709 18.2603 -2.9991 4.5835 -6.5054 -0.0000 -28.0312 -0.4105 14.5486 1.6339 32.8623 0.0000 -24.3270 4.1909 6.0297 1.3479 -11.7652 -26.0578 -73.6187 5.0236 0.0000 7.2402 -0.0608 12.5327 0.2801 33.1476 -0.0000 26.2537 -7.5497 28.6956 -43.4357
 -0.9258 31.7660 -10.5086 60.9411 -7.9310 22.3841 -54.4577 2.4964 10.6320 -5.5662 0.0000 0.0000 -5.2545 2.5971 5.4155 17.7567 -0.0000 -0.0000 -67.3675 3.2139 -11.1263 2.8835 -0.0000 0.0000 -4.9346 8.7414 -0.8741 8.0817 -0.0000 -0.0000 -42.4013 -8.4685 -38.4082 -34.0077 12.7543 -71.4871 18.2056 -3.2300 4.5190 -6.3251 -0.0000 -27.9617 -0.3703 14.5649 1.4721 32.8623 0.0000 -24.3270 4.1431 6.0459 1.3252 -11.7193 -26.0145 -73.6534 4.9927 0.0000 7.3531 -0.0188 12.5218 0.0867 33.1476 -0.0000 26.2537 -7.6057 28.6763 -43.3837
 -0.9287 31.7641 -10.4996 60.9132 -7.8373 22.2732 -54.4713 2.5250 10.6025 -5.5526 -0.0000 0.0000 -5.2921 2.4393 5.4404 17.6732 -0.0000 -0.0000 -67.3968 3.1400 -11.1729 2.9552 0.0000 -0.0000 -4.9913 8.6906 -0.8477 8.1594 -0.0000 0.0000 -42.4332 -8.4829 -38.3828 -34.0186 12.7334 -71.4690 18.2167 -3.4684 4.4081 -6.1110 -0.0000 -27.9512 -0.3664 14.4353 1.4697 32.8623 0.0000 -24.3270 4.0910 6.0189 1.3208 -11.6619 -26.0605 -73.7084 5.0527 0.0000 7.2456 0.0344 12.3011 -0.1614 33.1476 -0.0000 26.2537 -7.6332 28.6541 -43.2995
 -0.9314 31.7634 -10.4924 60.8973 -7.7288 22.1510 -54.4937 2.5223 10.5774 -5.5481 0.0000 -0.0000 -5.3804 2.3442 5.3344 17.7666 -0.0000 0.0000 -67.4488 3.0610 -11.2186 3.0317 0.0000 -0.0000 -5.0165 8.6222 -0.8462 8.1892 -0.0000 -0.0000 -42.4813 -8.5369 -38.3532 -34.0443 12.7131 -71.4308 18.0978 -3.7399 4.2517 -5.8256 -0.0000 -27.8662 -0.3455 14.4290 1.3862 32.8623 0.0000 -24.3270 4.0923 6.0245 1.3149 -11.6741 -26.0456 -73.7667 5.0390 0.0000 7.3274 0.0911 12.1790 -0.4319 33.1476 -0.0000 26.2537 -7.6888 28.6626 -43.1968
 -0.9333 31.7622 -10.4822 60.8674 -7.6385 22.0596 -54.4866 2.5148 10.5353 -5.5456 0.0000 0.0000 -5.4354 2.2434 5.4190 17.7443 -0.0000 0.0000 -67.5056 2.9120 -11.2657 3.1409 -0.0000 0.0000 -5.0761 8.6623 -0.9861 8.2346 0.0000 0.0000 -42.5024 -8.5416 -38.3415 -34.1011 12.6608 -71.4247 18.1101 -3.8941 4.1557 -5.6206 -0.0000 -27.8763 -0.2604 14.4860 1.0407 32.8623 0.0000 -24.3270 4.1031 6.0233 1.3124 -11.6975 -25.9848 -73.8366 4.9759 0.0000 7.4962 0.1884 12.0380 -0.9035 33.1476 -0.0000 26.2537 -7.7561 28.6460 -43.0640
 -0.9386 31.7616 -10.4746 60.8419 -7.5627 21.9731 -54.4810 2.5210 10.5115 -5.5459 -0.0000 -0.0000 -5.5075 2.1809 5.3468 17.8452 -0.0000 -0.0000 -67.5292 2.8377 -11.2988 3.2039 0.0000 0.0000 -5.1183 8.6383 -1.0091 8.2850 -0.0000 -0.0000 -42.5195 -8.5177 -38.3365 -34.1336 12.6431 -71.4217 18.0921 -4.1238 4.0643 -5.3063 -0.0000 -27.8161 -0.1625 14.6169 0.6441 32.8623 0.0000 -24.3270 4.0725 6.0124 1.3323 -11.6709 -26.0906 -73.9178 4.9896 0.0000 7.4172 0.1872 11.9797 -0.9020 33.1476 -0.0000 26.2537 -7.8084 28.6086 -42.9061
 -0.9435 31.7609 -10.4674 60.8237 -7.4859 21.8747 -54.4815 2.5384 10.4938 -5.5578 0.0000 -0.0000 -5.5044 2.0518 5.4233 17.7607 -0.0000 -0.0000 -67.5550 2.8044 -11.3199 3.2722 0.0000 0.0000 -5.1302 8.5521 -1.1003 8.2572 -0.0000 -0.0000 -42.5406 -8.5141 -38.3126 -34.1608 12.6454 -71.3839 18.1341 -4.3596 3.9177 -5.0347 -0.0000 -27.9090 -0.1034 14.7189 0.4071 32.8623 0.0000 -24.3270 3.9935 6.0250 1.3227 -11.6251 -26.1211 -73.9798 4.9855 0.0000 7.4003 0.2594 11.8372 -1.2644 33.1476 -0.0000 26.2537 -7.8803 28.5796 -42.7597
 -0.9478 31.7601 -10.4598 60.7992 -7.4192 21.8104 -54.4766 2.5660 10.4663 -5.5538 -0.0000 -0.0000 -5.5896 2.0011 5.2967 17.8561 -0.0000 0.0000 -67.5891 2.7949 -11.3479 3.3851 -0.0000 -0.0000 -5.1898 8.4827 -1.2018 8.3041 0.0000 0.0000 -42.5549 -8.4799 -38.3151 -34.2034 12.6590 -71.3537 18.1241 -4.5648 3.7890 -4.8039 -0.0000 -27.8964 -0.0445 14.7157 0.1751 32.8623 0.0000 -24.3270 3.9159 6.0565 1.3349 -11.5995 -26.1658 -74.0718 4.9752 0.0000 7.3627 0.2870 11.7599 -1.4078 33.1476 -0.0000 26.2537 -7.9840 28.5404 -42.5738
 -0.9527 31.7591 -10.4522 60.7765 -7.3557 21.7483 -54.4671 2.5920 10.4456 -5.5609 -0.0000 0.0000 -5.6324 1.8844 5.2988 17.8495 -0.0000 -0.0000 -67.5853 2.7367 -11.3830 3.3978 0.0000 0.0000 -5.1992 8.4601 -1.2084 8.3051 0.0000 -0.0000 -42.5771 -8.4451 -38.3122 -34.2604 12.6572 -71.3458 18.1849 -4.6534 3.6903 -4.7000 -0.0000 -27.9954 0.0355 14.9591 -0.1375 32.8623 0.0000 -24.3270 3.8941 6.0854 1.3375 -11.6171 -26.1580 -74.1618 4.9293 0.0000 7.3321 0.3006 11.7230 -1.4791 33.1476 -0.0000 26.2537 -8.0647 28.5078 -42.4114
 -0.9577 31.7577 -10.4457 60.7559 -7.2965 21.6773 -54.4575 2.5619 10.4366 -5.5540 0.0000 -0.0000 -5.6553 1.8017 5.3641 17.8014 0.0000 0.0000 -67.5913 2.6692 -11.4099 3.4243 -0.0000 0.0000 -5.2234 8.4475 -1.2018 8.3069 -0.0000 0.0000 -42.6087 -8.4223 -38.3072 -34.3089 12.6068 -71.3360 18.2543 -4.6389 3.6120 -4.7775 -0.0000 -28.1790 0.0599 15.1686 -0.2288 32.8623 0.0000 -24.3270 3.8850 6.0695 1.3666 -11.6347 -26.0202 -74.2685 4.8641 0.0000 7.3960 0.3421 11.6303 -1.6964 33.1476 -0.0000 26.2537 -8.0815 28.5106 -42.2452
